HIERARCHY
ROOT Hips
{
	OFFSET 0.00000 0.00000 0.00000
	CHANNELS 6 Xposition Yposition Zposition Zrotation Yrotation Xrotation 
	JOINT LHipJoint
	{
		OFFSET 0 0 0
		CHANNELS 3 Zrotation Yrotation Xrotation
		JOINT LeftHip
		{
			OFFSET 1.41496 -1.84582 0.78394
			CHANNELS 3 Zrotation Yrotation Xrotation
			JOINT LeftKnee
			{
				OFFSET 2.58040 -7.08960 0.00000
				CHANNELS 3 Zrotation Yrotation Xrotation
				JOINT LeftAnkle
				{
					OFFSET 2.64719 -7.27309 0.00000
					CHANNELS 3 Zrotation Yrotation Xrotation
					JOINT LeftToe
					{
						OFFSET 0.20718 -0.56921 2.20259
						CHANNELS 3 Zrotation Yrotation Xrotation
						End Site
						{
							OFFSET 0.00000 -0.00000 1.14243
						}
					}
				}
			}
		}
	}
	JOINT RHipJoint
	{
		OFFSET 0 0 0
		CHANNELS 3 Zrotation Yrotation Xrotation
		JOINT RightHip
		{
			OFFSET -1.40551 -1.84582 0.78394
			CHANNELS 3 Zrotation Yrotation Xrotation
			JOINT RightKnee
			{
				OFFSET -2.56572 -7.04926 0.00000
				CHANNELS 3 Zrotation Yrotation Xrotation
				JOINT RightAnkle
				{
					OFFSET -2.57974 -7.08778 0.00000
					CHANNELS 3 Zrotation Yrotation Xrotation
					JOINT RightToe
					{
						OFFSET -0.26704 -0.73369 2.20815
						CHANNELS 3 Zrotation Yrotation Xrotation
						End Site
						{
							OFFSET -0.00000 -0.00000 1.16246
						}
					}
				}
			}
		}
	}
	JOINT lowerback
	{
		OFFSET 0 0 0
		CHANNELS 3 Zrotation Yrotation Xrotation
		JOINT Chest
		{
			OFFSET -0.04690 2.05196 -0.07017
			CHANNELS 3 Zrotation Yrotation Xrotation
			JOINT Chest2
			{
				OFFSET 0.04085 2.05260 0.00800
				CHANNELS 3 Zrotation Yrotation Xrotation
				JOINT lowerneck
				{
					OFFSET 0 0 0
					CHANNELS 3 Zrotation Yrotation Xrotation
					JOINT Neck
					{
						OFFSET -0.03582 1.80995 0.19301
						CHANNELS 3 Zrotation Yrotation Xrotation
						JOINT Head
						{
							OFFSET 0.00952 1.80195 -0.36389
							CHANNELS 3 Zrotation Yrotation Xrotation
							End Site
							{
								OFFSET 0.00392 1.85062 -0.14494
							}
						}
					}
				}
				JOINT LeftCollar
				{
					OFFSET 0 0 0
					CHANNELS 3 Zrotation Yrotation Xrotation
					JOINT LeftShoulder
					{
						OFFSET 3.55224 1.39726 -0.13667
CHANNELS 3 Zrotation Xrotation Yrotation
						JOINT LeftElbow
						{
OFFSET 0 -5.145070 -0.000000
CHANNELS 3 Zrotation Xrotation Yrotation
							JOINT LeftWrist
							{
OFFSET 0 -3.506460 0.000000
CHANNELS 3 Zrotation Xrotation Yrotation
								JOINT lhand
								{
									OFFSET 0 0 0
CHANNELS 3 Zrotation Xrotation Yrotation
									JOINT LFingers
									{
OFFSET 0 -0.629970 0.000000
CHANNELS 3 Zrotation Xrotation Yrotation
										End Site
										{
OFFSET 0 -0.507900 0.000000
										}
									}
								}
								JOINT LThumb
								{
OFFSET 0 0.000000 0.000000
CHANNELS 3 Zrotation Xrotation Yrotation
									End Site
									{
OFFSET 0 -0.515650 0.515650
									}
								}
							}
						}
					}
				}
				JOINT RightCollar
				{
					OFFSET 0 0 0
					CHANNELS 3 Zrotation Yrotation Xrotation
					JOINT RightShoulder
					{
						OFFSET -3.06467 1.61290 -0.28813
CHANNELS 3 Zrotation Xrotation Yrotation
						JOINT RightElbow
						{
OFFSET 0 -5.232000 -0.000000
CHANNELS 3 Zrotation Xrotation Yrotation
							JOINT RightWrist
							{
OFFSET 0 -3.656410 0.000000
CHANNELS 3 Zrotation Xrotation Yrotation
								JOINT rhand
								{
									OFFSET 0 0 0
CHANNELS 3 Zrotation Xrotation Yrotation
									JOINT RFingers
									{
OFFSET 0 -0.656810 0.000000
CHANNELS 3 Zrotation Xrotation Yrotation
										End Site
										{
OFFSET 0 -0.529530 0.000000
										}
									}
								}
								JOINT RThumb
								{
OFFSET 0 0.000000 0.000000
CHANNELS 3 Zrotation Xrotation Yrotation
									End Site
									{
OFFSET 0 -0.537620 0.537620
									}
								}
							}
						}
					}
				}
			}
		}
	}
}
MOTION
Frames: 9
Frame Time: 0.008333333333333333
0.723500 17.158600 32.759200 177.962000 -6.298300 -174.949000 0.000000 0.000000 0.000000 -25.311500 -8.990700 -8.819400 2.897600 10.527400 30.702000 1.406000 -7.704300 -21.206700 0.209000 2.943100 8.120400 0.000000 0.000000 0.000000 12.533800 7.210500 -30.704500 -3.514200 -11.484200 33.930800 -0.062600 -3.475400 -7.257200 -0.438800 -4.250600 11.782800 -3.090000 -0.540000 4.057200 1.739800 -0.876600 -2.717000 3.618500 -0.312000 -5.023700 -2.019800 -0.178200 -19.401300 -1.188000 -0.165300 26.652800 -0.205200 -0.799700 11.987100 0.000000 -0.000000 0.000000 0.618100 5.502700 -20.283800 17.399200 -27.381100 4.269300 8.758200 16.674400 -9.192800 0.000000 0.000000 0.000000 -7.125000 0.000000 0.000000 -15.645600 38.813800 -2.455400 0.000000 -0.000000 0.000000 -3.850200 4.507100 12.650200 -16.435300 -26.107300 -3.835500 -20.509500 6.518800 11.764000 0.000000 0.000000 0.000000 7.125000 0.000000 -0.000000 6.017800 42.437400 0.382000
0.722063 17.158379 32.759366 177.955369 -6.285480 -174.948447 0.000000 0.000000 0.000000 -25.323767 -8.969204 -8.825865 2.897047 10.526516 30.699071 1.404950 -7.710157 -21.199074 0.205574 2.919283 8.054200 0.000000 0.000000 0.000000 12.522969 7.216081 -30.709086 -3.515637 -11.486300 33.938039 -0.062545 -3.475400 -7.254603 -0.434877 -4.231702 11.729531 -3.098620 -0.536961 4.051287 1.742618 -0.872953 -2.719100 3.625960 -0.309845 -5.022705 -2.013169 -0.154218 -19.364553 -1.175788 -0.135294 26.613787 -0.196303 -0.782459 11.964278 0.000000 0.000000 0.000000 0.643409 5.512094 -20.310987 17.402405 -27.385244 4.270792 8.748640 16.648484 -9.207996 0.000000 0.000000 0.000000 -7.125000 0.000000 0.000000 -15.657370 38.827836 -2.451753 0.000000 0.000000 0.000000 -3.852797 4.511797 12.660644 -16.438781 -26.111997 -3.837047 -20.504527 6.523829 11.787319 0.000000 0.000000 0.000000 7.125000 0.000000 0.000000 6.026255 42.461438 0.378961
0.720584 17.158147 32.759521 177.948107 -6.274059 -174.949472 0.000000 0.000000 0.000000 -25.337455 -8.950012 -8.829323 2.896484 10.525600 30.696048 1.404079 -7.713669 -21.192742 0.202821 2.900126 8.000947 0.000000 0.000000 0.000000 12.511276 7.219043 -30.711601 -3.516884 -11.488126 33.944342 -0.062489 -3.473854 -7.250702 -0.431658 -4.216221 11.685874 -3.106515 -0.534574 4.047142 1.744732 -0.870158 -2.720579 3.632368 -0.308153 -5.022016 -2.009904 -0.139407 -19.343340 -1.167709 -0.116374 26.588668 -0.190394 -0.771561 11.950081 0.000000 0.000000 0.000000 0.668465 5.518575 -20.333137 17.403107 -27.386128 4.271127 8.753731 16.628562 -9.208605 0.000000 0.000000 0.000000 -7.125000 0.000000 0.000000 -15.653343 38.828788 -2.450662 0.000000 0.000000 0.000000 -3.854900 4.513328 12.669121 -16.440149 -26.113854 -3.837658 -20.498901 6.527027 11.800657 0.000000 0.000000 0.000000 7.125000 0.000000 0.000000 6.033584 42.474905 0.377426
0.718927 17.157871 32.759632 177.938160 -6.268588 -174.957209 0.000000 0.000000 0.000000 -25.357182 -8.940618 -8.819984 2.895876 10.524550 30.692622 1.403968 -7.707204 -21.191913 0.202932 2.900789 8.002771 0.000000 0.000000 0.000000 12.495914 7.210865 -30.705302 -3.517326 -11.488789 33.946663 -0.062434 -3.465731 -7.241252 -0.431437 -4.215282 11.683111 -3.111323 -0.534960 4.050512 1.743848 -0.870987 -2.719419 3.634302 -0.308429 -5.022624 -2.020955 -0.163610 -19.388210 -1.177214 -0.144612 26.622652 -0.197190 -0.787641 11.972571 0.000000 0.000000 0.000000 0.692447 5.512662 -20.333855 17.393160 -27.373143 4.266541 8.821147 16.634143 -9.147157 0.000000 0.000000 0.000000 -7.125000 0.000000 0.000000 -15.582114 38.774081 -2.460442 0.000000 0.000000 0.000000 -3.854900 4.501392 12.669232 -16.432523 -26.103631 -3.834288 -20.490502 6.522441 11.771536 0.000000 0.000000 0.000000 7.125000 0.000000 0.000000 6.036126 42.443408 0.382288
0.717395 17.157637 32.759679 177.935576 -6.261203 -174.966628 0.000000 0.000000 0.000000 -25.368643 -8.931729 -8.809215 2.895206 10.523437 30.688943 1.403795 -7.694428 -21.190495 0.200434 2.882605 7.952154 0.000000 0.000000 0.000000 12.489050 7.207378 -30.697088 -3.517768 -11.489452 33.948941 -0.062442 -3.458849 -7.234453 -0.430837 -4.212407 11.674942 -3.112933 -0.533980 4.050644 1.746077 -0.869607 -2.716828 3.637393 -0.307738 -5.020076 -2.024918 -0.169155 -19.399950 -1.178409 -0.150468 26.628071 -0.198013 -0.790911 11.977097 0.000000 0.000000 0.000000 0.715483 5.514743 -20.340947 17.389019 -27.367729 4.264626 8.874869 16.634129 -9.088023 0.000000 0.000000 0.000000 -7.125000 0.000000 0.000000 -15.522981 38.720574 -2.471675 0.000000 0.000000 0.000000 -3.855952 4.493306 12.671551 -16.428031 -26.097616 -3.832305 -20.483407 6.515540 11.742940 0.000000 0.000000 0.000000 7.125000 0.000000 0.000000 6.037553 42.412562 0.386983
0.716069 17.157471 32.759624 177.944970 -6.250704 -174.978785 0.000000 0.000000 0.000000 -25.366653 -8.923661 -8.796118 2.894432 10.522222 30.684854 1.403519 -7.671385 -21.188119 0.193692 2.833756 7.816217 0.000000 0.000000 0.000000 12.496013 7.211522 -30.685760 -3.518210 -11.490116 33.951152 -0.062553 -3.453986 -7.231967 -0.429622 -4.206384 11.657978 -3.109341 -0.530775 4.045505 1.753371 -0.864634 -2.711910 3.642366 -0.305472 -5.012395 -2.017348 -0.144344 -19.357788 -1.166086 -0.119910 26.587014 -0.189117 -0.773339 11.952397 0.000000 0.000000 0.000000 0.736978 5.529828 -20.358409 17.394324 -27.374637 4.267057 8.906311 16.625012 -9.032654 0.000000 0.000000 0.000000 -7.125000 0.000000 0.000000 -15.483526 38.669018 -2.485268 0.000000 0.000000 0.000000 -3.858715 4.491482 12.677463 -16.428639 -26.098444 -3.832581 -20.478434 6.504875 11.715201 0.000000 0.000000 0.000000 7.125000 0.000000 0.000000 6.037166 42.382778 0.391404
0.714774 17.157368 32.759253 177.942689 -6.248314 -174.990311 0.000000 0.000000 0.000000 -25.374761 -8.909945 -8.782202 2.893374 10.520469 30.679124 1.403684 -7.686616 -21.189309 0.196353 2.852619 7.868713 0.000000 0.000000 0.000000 12.489913 7.210997 -30.672349 -3.518716 -11.490842 33.953615 -0.062726 -3.452657 -7.236264 -0.428911 -4.202948 11.648334 -3.117991 -0.531830 4.051188 1.758772 -0.866633 -2.715069 3.653209 -0.305920 -5.018629 -2.012365 -0.133479 -19.334715 -1.167489 -0.106074 26.571893 -0.188014 -0.766526 11.941768 0.000000 0.000000 0.000000 0.754530 5.543494 -20.359684 17.388554 -27.367125 4.264408 8.885218 16.635583 -9.045848 0.000000 0.000000 0.000000 -7.125000 0.000000 0.000000 -15.504337 38.680283 -2.484348 0.000000 0.000000 0.000000 -3.866053 4.499661 12.691832 -16.428932 -26.098832 -3.832732 -20.459956 6.494684 11.696832 0.000000 0.000000 0.000000 7.125000 0.000000 0.000000 6.050473 42.361544 0.395477
0.713503 17.157313 32.758645 177.931638 -6.252016 -175.001362 0.000000 0.000000 0.000000 -25.390454 -8.891986 -8.767669 2.892103 10.518314 30.672162 1.404181 -7.730602 -21.193177 0.206079 2.922356 8.062781 0.000000 0.000000 0.000000 12.473998 7.206963 -30.657374 -3.519268 -11.491615 33.956267 -0.062947 -3.453983 -7.245658 -0.428579 -4.201456 11.644189 -3.135840 -0.536084 4.065003 1.762750 -0.873872 -2.724297 3.668460 -0.308407 -5.035317 -2.009325 -0.133092 -19.325984 -1.179204 -0.104803 26.576258 -0.192766 -0.767797 11.941713 0.000000 0.000000 0.000000 0.769118 5.556093 -20.348798 17.374463 -27.348779 4.257943 8.824655 16.660946 -9.110556 0.000000 0.000000 0.000000 -7.125000 0.000000 0.000000 -15.570426 38.738746 -2.472522 0.000000 0.000000 0.000000 -3.876828 4.515354 12.712554 -16.428987 -26.098887 -3.832787 -20.431332 6.484848 11.685504 0.000000 0.000000 0.000000 7.125000 0.000000 0.000000 6.074068 42.346735 0.399290
0.712190 17.157258 32.758290 177.926896 -6.251764 -175.010731 0.000000 0.000000 0.000000 -25.400889 -8.877982 -8.755155 2.890959 10.516370 30.665746 1.404132 -7.751197 -21.193132 0.209999 2.950359 8.140695 0.000000 0.000000 0.000000 12.465067 7.204233 -30.645007 -3.519442 -11.491884 33.957237 -0.063042 -3.454048 -7.248783 -0.427785 -4.197608 11.633271 -3.146705 -0.538026 4.075242 1.767486 -0.877409 -2.731338 3.680177 -0.309421 -5.048093 -2.007170 -0.129466 -19.314518 -1.184440 -0.099830 26.574692 -0.194321 -0.766333 11.938755 0.000000 0.000000 0.000000 0.786778 5.571384 -20.351795 17.367019 -27.339099 4.254549 8.811420 16.671375 -9.125748 0.000000 0.000000 0.000000 -7.125000 0.000000 0.000000 -15.585106 38.752532 -2.469574 0.000000 0.000000 0.000000 -3.884701 4.527304 12.729532 -16.429715 -26.099826 -3.833094 -20.415876 6.475180 11.678004 0.000000 0.000000 0.000000 7.125000 0.000000 0.000000 6.086557 42.337310 0.401546
